<?xml version="1.0" encoding="iso-8859-1"?>
<!-- Generator: Adobe Illustrator 19.0.0, SVG Export Plug-In . SVG Version: 6.00 Build 0)  -->
<svg version="1.1" id="Capa_1" xmlns="http://www.w3.org/2000/svg" xmlns:xlink="http://www.w3.org/1999/xlink" x="0px" y="0px"
	 viewBox="0 0 512 512" style="enable-background:new 0 0 512 512;" xml:space="preserve">
<g>
	<g>
		<g>
			<path d="M511.764,321.243l-6.017-50.405c-0.647-5.418-5.519-9.317-10.946-8.763c-19.888,2.035-38-12.465-40.369-32.317
				c-2.37-19.852,11.819-38.205,31.628-40.911c5.407-0.739,9.223-5.675,8.576-11.093l-6.016-50.405
				c-1.04-8.708-5.408-16.49-12.3-21.913c-6.893-5.422-15.484-7.835-24.191-6.797l-351.243,41.925
				c-8.62,1.029-16.329,5.324-21.744,12.096H32.832C14.728,152.662,0,167.39,0,185.493v50.763c0,5.457,4.375,9.906,9.83,9.999
				c19.991,0.339,36.255,16.881,36.255,36.874c0,19.993-16.264,36.535-36.255,36.875C4.375,320.095,0,324.545,0,330.001v50.763
				c0,18.103,14.728,32.831,32.832,32.831h281.732h72.004c18.104,0,32.832-14.728,32.832-32.832v-15.431l63.655-7.598
				c8.708-1.039,16.49-5.407,21.913-12.3C510.389,338.541,512.803,329.95,511.764,321.243z M399.4,347.577v20.142v13.044
				c0,7.075-5.756,12.832-12.832,12.832h-62.004v-16.943v-1.806c0-5.523-4.477-10-10-10c-5.523,0-10,4.477-10,10v4.193v14.555
				H182.622h-74.007H32.832c-7.075,0-12.832-5.756-12.832-12.832v-41.776c11.235-2.151,21.554-7.645,29.739-15.958
				c10.541-10.705,16.346-24.875,16.346-39.9s-5.805-29.195-16.346-39.9c-8.186-8.313-18.504-13.807-29.739-15.958v-41.777
				c0-7.075,5.756-12.832,12.832-12.832h39.12h20.016h212.597v121.771c0,5.523,4.477,10,10,10c5.523,0,10-4.477,10-10V172.662
				h62.004c7.075,0,12.832,5.756,12.832,12.832v41.777c-11.235,2.151-21.554,7.645-29.74,15.958
				c-10.541,10.705-16.345,24.875-16.345,39.9s5.805,29.195,16.345,39.9c8.186,8.313,18.505,13.807,29.74,15.958V347.577z
				 M489.249,333.069c-2.119,2.693-5.161,4.401-8.564,4.807l-61.285,7.315v-15.19c0-5.457-4.375-9.906-9.83-9.999
				c-19.991-0.339-36.255-16.881-36.255-36.875c0-19.994,16.264-36.535,36.255-36.874c5.456-0.093,9.83-4.542,9.83-9.999v-50.763
				c0-18.104-14.728-32.832-32.832-32.832h-72.004H168.296l286.203-34.16c3.401-0.407,6.761,0.537,9.455,2.656
				c2.694,2.119,4.401,5.161,4.807,8.564l4.952,41.483c-10.901,3.468-20.496,10.146-27.639,19.37
				c-9.197,11.879-13.282,26.637-11.501,41.556c1.781,14.919,9.225,28.302,20.959,37.682c9.113,7.285,20.01,11.516,31.421,12.321
				l4.952,41.483C492.311,327.017,491.368,330.375,489.249,333.069z"/>
			<path d="M323.798,330.811c-0.25-0.6-0.56-1.18-0.92-1.72c-0.36-0.55-0.78-1.06-1.24-1.52c-0.46-0.46-0.98-0.88-1.52-1.24
				c-0.55-0.37-1.13-0.67-1.73-0.92s-1.23-0.45-1.87-0.58c-1.29-0.25-2.62-0.25-3.91,0c-0.64,0.13-1.26,0.33-1.87,0.58
				c-0.6,0.25-1.18,0.55-1.72,0.92c-0.55,0.36-1.06,0.78-1.52,1.24c-0.47,0.46-0.88,0.97-1.25,1.52c-0.36,0.54-0.67,1.12-0.92,1.72
				c-0.25,0.61-0.44,1.24-0.57,1.88s-0.19,1.3-0.19,1.95c0,0.65,0.06,1.31,0.19,1.95s0.32,1.27,0.57,1.87
				c0.25,0.61,0.56,1.19,0.92,1.73c0.37,0.55,0.78,1.06,1.25,1.52c0.46,0.46,0.97,0.88,1.52,1.24c0.54,0.36,1.12,0.67,1.72,0.92
				c0.61,0.25,1.23,0.45,1.87,0.57c0.65,0.13,1.3,0.2,1.96,0.2c0.65,0,1.3-0.07,1.95-0.2c0.64-0.12,1.27-0.32,1.87-0.57
				s1.18-0.56,1.73-0.92c0.54-0.36,1.06-0.78,1.52-1.24c0.46-0.46,0.88-0.97,1.24-1.52c0.36-0.54,0.67-1.12,0.92-1.73
				c0.25-0.6,0.44-1.23,0.57-1.87c0.13-0.64,0.2-1.3,0.2-1.95c0-0.65-0.07-1.31-0.2-1.95S324.048,331.421,323.798,330.811z"/>
			<path d="M241.858,257.27l-43.928-6.383l-19.645-39.805c-1.685-3.413-5.161-5.574-8.967-5.574s-7.283,2.161-8.967,5.574
				l-17.285,35.023l-2.36,4.782l-16.628,2.416l-27.299,3.967c-3.767,0.547-6.896,3.186-8.073,6.806
				c-1.177,3.62-0.195,7.594,2.531,10.251l26.454,25.787l5.331,5.197l-3.024,17.633l-4.48,26.117
				c-0.644,3.751,0.898,7.543,3.978,9.781c3.079,2.237,7.162,2.533,10.531,0.761l39.291-20.656l39.29,20.656
				c1.463,0.77,3.061,1.149,4.652,1.149c2.073,0,4.137-0.644,5.879-1.91c3.08-2.237,4.622-6.029,3.978-9.781l-7.504-43.75
				l31.787-30.984c2.726-2.657,3.707-6.631,2.531-10.251C248.755,260.456,245.625,257.818,241.858,257.27z M197.889,294.659
				c-2.357,2.297-3.433,5.607-2.876,8.851l4.967,28.961l-26.009-13.673c-2.913-1.532-6.393-1.532-9.307,0l-26.009,13.674
				l4.967-28.961c0.256-1.49,0.152-2.99-0.247-4.403c-0.47-1.664-1.354-3.206-2.629-4.448l-12.322-12.011l-8.719-8.499l10.052-1.462
				l19.027-2.765c0.3-0.044,0.592-0.114,0.884-0.184c2.876-0.687,5.323-2.607,6.646-5.286l13.005-26.35l13.004,26.35
				c1.457,2.951,4.272,4.997,7.529,5.47l29.079,4.226L197.889,294.659z"/>
		</g>
	</g>
</g>
<g>
</g>
<g>
</g>
<g>
</g>
<g>
</g>
<g>
</g>
<g>
</g>
<g>
</g>
<g>
</g>
<g>
</g>
<g>
</g>
<g>
</g>
<g>
</g>
<g>
</g>
<g>
</g>
<g>
</g>
</svg>
